<svg xmlns="http://www.w3.org/2000/svg" fill="#9d0208" xmlns:xlink="http://www.w3.org/1999/xlink" version="1.1" x="0px" y="0px" viewBox="0 0 160 200" style="enable-background:new 0 0 160 160;" xml:space="preserve"><path fill="#9d0208" d="M52.31,60.966c-1.519-1.194-3.72-0.931-4.915,0.588l-5.952,7.571l-2.464-2.273c-1.42-1.311-3.635-1.222-4.946,0.199  c-1.311,1.42-1.222,3.635,0.199,4.946l5.248,4.842c0.649,0.599,1.497,0.928,2.374,0.928c0.092,0,0.186-0.004,0.278-0.011  c0.973-0.078,1.87-0.558,2.473-1.326l8.293-10.549C54.093,64.361,53.83,62.161,52.31,60.966z"/><path d="M52.31,89.559c-1.519-1.196-3.721-0.931-4.915,0.588l-5.953,7.571l-2.463-2.273c-1.42-1.311-3.635-1.222-4.946,0.199  c-1.311,1.42-1.222,3.635,0.199,4.945l5.248,4.842c0.649,0.599,1.497,0.928,2.374,0.928c0.092,0,0.186-0.004,0.278-0.011  c0.973-0.078,1.87-0.559,2.473-1.326l8.293-10.549C54.093,92.954,53.83,90.754,52.31,89.559z"/><path d="M52.31,118.151c-1.519-1.197-3.721-0.931-4.915,0.588l-5.953,7.571l-2.463-2.273c-1.42-1.311-3.635-1.222-4.946,0.199  c-1.311,1.42-1.222,3.635,0.199,4.945l5.248,4.842c0.649,0.599,1.497,0.928,2.374,0.928c0.092,0,0.186-0.004,0.278-0.011  c0.973-0.078,1.87-0.559,2.473-1.326l8.293-10.549C54.093,121.546,53.83,119.345,52.31,118.151z"/><path d="M63.71,72.492h30.334c1.933,0,3.5-1.567,3.5-3.5s-1.567-3.5-3.5-3.5H63.71c-1.933,0-3.5,1.567-3.5,3.5  S61.776,72.492,63.71,72.492z"/><path d="M63.705,101.08h13.73c0.82-2.47,1.91-4.81,3.23-7h-16.96c-1.93,0-3.5,1.57-3.5,3.5  C60.205,99.52,61.775,101.08,63.705,101.08z"/><path d="M63.705,122.68c-1.93,0-3.5,1.56-3.5,3.5c0,1.93,1.57,3.5,3.5,3.5h16.53c-1.26-2.2-2.28-4.54-3.04-7H63.705z"/><path d="M143.825,112.252c0-16.93-12.876-30.907-29.35-32.659V33.23c0-1.93-1.57-3.5-3.5-3.5h-18.2v-5.8c0-1.93-1.56-3.5-3.5-3.5  h-12.31v-3.44c0-6.42-5.22-11.64-11.64-11.64c-6.42,0-11.65,5.22-11.65,11.64v3.44h-12.31c-1.93,0-3.5,1.57-3.5,3.5v5.8h-18.19  c-1.94,0-3.5,1.57-3.5,3.5v117.92c0,1.93,1.56,3.5,3.5,3.5h91.3c1.93,0,3.5-1.57,3.5-3.5v-6.238  C130.949,143.159,143.825,129.183,143.825,112.252z M60.675,16.99c0-2.56,2.09-4.64,4.65-4.64s4.64,2.08,4.64,4.64v3.44h-9.29V16.99  z M44.865,27.43h40.91v11.6h-40.91V27.43z M23.175,147.65V36.73h14.69v5.8c0,1.93,1.57,3.5,3.5,3.5h47.91c1.94,0,3.5-1.57,3.5-3.5  v-5.8h14.7v42.863c-9.938,1.058-18.564,6.566-23.845,14.487h-0.005c-0.066,0.099-0.125,0.204-0.19,0.304  c-0.238,0.365-0.471,0.734-0.695,1.109c-0.131,0.219-0.256,0.441-0.382,0.663c-0.161,0.286-0.319,0.574-0.472,0.865  c-0.135,0.256-0.268,0.513-0.397,0.773c-0.139,0.282-0.27,0.569-0.401,0.856c-0.116,0.253-0.235,0.504-0.344,0.76  c-0.229,0.536-0.443,1.079-0.643,1.629c-0.005,0.013-0.011,0.026-0.016,0.04h0.002c-1.266,3.489-1.959,7.251-1.959,11.172  c0,3.645,0.606,7.149,1.707,10.428h-0.01c0.039,0.116,0.087,0.228,0.127,0.344c0.124,0.357,0.254,0.71,0.39,1.061  c0.09,0.233,0.18,0.467,0.275,0.697c0.131,0.317,0.271,0.629,0.412,0.941c0.107,0.238,0.21,0.478,0.323,0.713  c0.241,0.501,0.493,0.995,0.759,1.482c0.091,0.167,0.19,0.329,0.284,0.494c0.216,0.38,0.436,0.756,0.666,1.126  c0.029,0.046,0.054,0.095,0.084,0.141h0.007c5.229,8.319,14.077,14.141,24.323,15.232v2.738H23.175z M110.976,138.1  c-14.253,0-25.848-11.596-25.848-25.849c0-14.252,11.595-25.848,25.848-25.848S136.825,98,136.825,112.252  C136.825,126.505,125.229,138.1,110.976,138.1z"/><path d="M113.37,124.283c-4.021,0.804-8.161-0.451-11.061-3.35c-3.518-3.519-4.434-8.66-2.766-13.034  c0.334,0.224,0.72,0.379,1.148,0.42c0.08,0.007,0.159,0.011,0.237,0.011c1.274,0,2.364-0.971,2.486-2.266l0.476-5.049  c0-0.003,0-0.007,0-0.01c0.007-0.082-0.001-0.167-0.002-0.251c-0.001-0.087,0.005-0.175-0.005-0.26c0-0.003,0-0.006,0-0.01  c-0.006-0.05-0.024-0.096-0.032-0.146c-0.02-0.112-0.039-0.224-0.073-0.33c-0.025-0.077-0.062-0.146-0.094-0.219  c-0.033-0.075-0.06-0.152-0.099-0.223c-0.045-0.08-0.1-0.151-0.153-0.226c-0.04-0.057-0.075-0.117-0.12-0.17  c-0.057-0.068-0.123-0.125-0.187-0.186c-0.053-0.051-0.101-0.105-0.158-0.151c-0.064-0.052-0.136-0.093-0.206-0.138  c-0.066-0.043-0.128-0.09-0.198-0.127c-0.077-0.041-0.161-0.068-0.242-0.101c-0.069-0.028-0.135-0.061-0.207-0.082  c-0.102-0.03-0.209-0.045-0.315-0.062c-0.055-0.009-0.107-0.027-0.164-0.032c-0.004,0-0.007,0-0.011,0  c-0.17-0.015-0.344-0.014-0.521,0.007l-4.935,0.59c-1.371,0.164-2.35,1.408-2.186,2.779c0.131,1.095,0.953,1.936,1.976,2.148  c-3.701,6.571-2.774,15.066,2.814,20.653c3.271,3.271,7.656,5.053,12.186,5.053c1.125,0,2.259-0.109,3.387-0.334  c1.354-0.27,2.233-1.586,1.964-2.94C116.04,124.892,114.724,124.015,113.37,124.283z"/><path d="M123.16,100.083c-4.178-4.178-10.123-5.912-15.896-4.65c-1.35,0.296-2.203,1.628-1.908,2.977  c0.296,1.35,1.63,2.204,2.977,1.908c4.105-0.899,8.325,0.335,11.293,3.301c2.313,2.313,3.586,5.388,3.586,8.657  c0,1.518-0.286,2.99-0.811,4.367c-0.346-0.246-0.752-0.415-1.205-0.458c-1.383-0.119-2.594,0.881-2.724,2.255l-0.476,5.049  c0,0.004,0,0.007,0,0.011c-0.007,0.081,0.001,0.165,0.002,0.248c0.001,0.088-0.005,0.177,0.005,0.263c0,0.003,0,0.006,0,0.01  c0.014,0.118,0.044,0.229,0.073,0.34c0.01,0.039,0.013,0.081,0.026,0.119c0.048,0.152,0.111,0.296,0.185,0.432  c0.02,0.036,0.046,0.068,0.068,0.103c0.059,0.098,0.12,0.194,0.191,0.282c0.037,0.046,0.082,0.085,0.122,0.128  c0.065,0.069,0.128,0.138,0.2,0.199c0.052,0.044,0.109,0.081,0.165,0.121c0.07,0.05,0.139,0.1,0.213,0.143  c0.061,0.035,0.125,0.063,0.189,0.093c0.079,0.037,0.158,0.072,0.241,0.101c0.065,0.022,0.131,0.039,0.198,0.056  c0.09,0.023,0.181,0.041,0.274,0.054c0.035,0.005,0.067,0.017,0.103,0.02c0.076,0.007,0.151,0.01,0.226,0.01  c0.002,0,0.004,0,0.006,0c0.001,0,0.002,0,0.003,0c0.001,0,0.002,0,0.003,0c0.003,0,0.006-0.001,0.01-0.001  c0.094-0.001,0.189-0.006,0.284-0.017l4.935-0.59c1.371-0.164,2.35-1.408,2.186-2.779c-0.128-1.072-0.917-1.894-1.911-2.128  C129.673,114.14,128.74,105.662,123.16,100.083z"/></svg>