<svg xmlns:dc="http://purl.org/dc/elements/1.1/" xmlns:cc="http://creativecommons.org/ns#" xmlns:rdf="http://www.w3.org/1999/02/22-rdf-syntax-ns#" xmlns:svg="http://www.w3.org/2000/svg" xmlns="http://www.w3.org/2000/svg" xmlns:sodipodi="http://sodipodi.sourceforge.net/DTD/sodipodi-0.dtd" xmlns:inkscape="http://www.inkscape.org/namespaces/inkscape" version="1.1" x="0px" y="0px" viewBox="0 0 100 125"><g transform="translate(0,-952.36218)"><path style="text-indent:0;text-transform:none;direction:ltr;block-progression:tb;baseline-shift:baseline;color:#9d0208;enable-background:accumulate;" d="m 28.4853,1003.8373 a 1.0001,1.0001 0 0 0 -0.53844,0.1413 c -12.55216,7.5047 -20.9468705,21.2315 -20.9468705,36.9181 0,0.8541 0.03085,1.6907 0.07124,2.5188 a 1.0001,1.0001 0 0 0 0.99876,0.9512 l 83.8500015,0 a 1.0001,1.0001 0 0 0 0.99812,-0.939 c 0.051,-0.8362 0.0819,-1.6769 0.0819,-2.531 0,-15.687 -8.40471,-29.4134 -20.94657,-36.9181 a 1.0001,1.0001 0 0 0 -1.17687,0.11 c -5.554351,4.9243 -12.865961,7.9181 -20.876561,7.9181 -8.02091,0 -15.32179,-2.9934 -20.87657,-7.9181 a 1.0001,1.0001 0 0 0 -0.63812,-0.2512 z m -0.12813,2.2338 c 5.83286,4.9459 13.39066,7.9356 21.64282,7.9356 8.24244,0 15.80848,-2.9891 21.64218,-7.935 11.616531,7.2316 19.35782,20.1107 19.35782,34.825 0,0.4915 -0.012,0.9809 -0.0316,1.47 l -81.9393705,0 c -0.01737,-0.4906 -0.02906,-0.9799 -0.02906,-1.47 0,-14.7149 7.7314715,-27.5942 19.3571815,-34.8256 z" fill="#9d0208" fill-opacity="1" fill-rule="evenodd" stroke="none" marker="none" visibility="visible" display="inline" overflow="visible"/><path style="text-indent:0;text-transform:none;direction:ltr;block-progression:tb;baseline-shift:baseline;color:#9d0208;enable-background:accumulate;" d="m 49.71999,960.35766 c -11.85053,0 -21.47,9.62958 -21.47,21.47 0,11.84993 9.62006,21.47004 21.47,21.47004 11.84041,0 21.47,-9.61952 21.47,-21.47004 0,-11.84101 -9.629,-21.47 -21.47,-21.47 z m 0,2 c 10.75899,0 19.47,8.711 19.47,19.47 0,10.76947 -8.71042,19.47004 -19.47,19.47004 -10.77007,0 -19.47,-8.69998 -19.47,-19.47004 0,-10.75959 8.70052,-19.47 19.47,-19.47 z" fill="#9d0208" fill-opacity="1" fill-rule="evenodd" stroke="none" marker="none" visibility="visible" display="inline" overflow="visible"/></g></svg>