<svg xmlns="http://www.w3.org/2000/svg" xmlns:xlink="http://www.w3.org/1999/xlink" viewBox="0 0 18 18" version="1.1" x="0px" y="0px"><title>Combined Shape</title><desc>Created with Sketch.</desc><g stroke="none" stroke-width="1" fill="none" fill-rule="evenodd"><g transform="translate(-66.000000, -16.000000)"><path d="M77.6938099,25.5200164 L71.0286516,25.5200164 C70.7366854,25.5200164 70.5,25.2757454 70.5,24.9934196 C70.5,24.7025881 70.7438097,24.4668227 71.0286516,24.4668227 L77.680649,24.4668227 L75.6104603,22.396634 C75.4094851,22.1956588 75.4070299,21.8587715 75.6133014,21.6525 C75.8135404,21.452261 76.1527331,21.4449564 76.3574355,21.6496588 L79.2908325,24.5830558 C79.3068619,24.5956322 79.3222546,24.6092487 79.3369037,24.6238978 C79.4405608,24.7275548 79.4915073,24.8641969 79.4910386,25 C79.4915073,25.1358031 79.4405608,25.2724452 79.3369037,25.3761022 C79.3222546,25.3907513 79.3068619,25.4043678 79.2908325,25.4169442 L76.3574355,28.3503412 C76.1527331,28.5550436 75.8135404,28.547739 75.6133014,28.3475 C75.4070299,28.1412285 75.4094851,27.8043412 75.6104603,27.603366 L77.6938099,25.5200164 Z M75,34 C70.0294373,34 66,29.9705627 66,25 C66,20.0294373 70.0294373,16 75,16 C79.9705627,16 84,20.0294373 84,25 C84,29.9705627 79.9705627,34 75,34 Z M75,33 C79.418278,33 83,29.418278 83,25 C83,20.581722 79.418278,17 75,17 C70.581722,17 67,20.581722 67,25 C67,29.418278 70.581722,33 75,33 Z" fill="#000000" fill-rule="nonzero"/></g></g><text x="0" y="33" fill="#000000" font-size="5px" font-weight="bold" font-family="'Helvetica Neue', Helvetica, Arial-Unicode, Arial, Sans-serif">Created by Arunkumar</text><text x="0" y="38" fill="#000000" font-size="5px" font-weight="bold" font-family="'Helvetica Neue', Helvetica, Arial-Unicode, Arial, Sans-serif">from the Noun Project</text></svg>