<svg xmlns="http://www.w3.org/2000/svg" fill="#9d0208" xmlns:xlink="http://www.w3.org/1999/xlink" version="1.1" x="0px" y="0px" viewBox="0 0 100 125" style="enable-background:new 0 0 100 100;" xml:space="preserve"><style type="text/css">
	.st0{fill-rule:evenodd;clip-rule:evenodd;}
</style><path fill="#9d0208" d="M81.5,87.3l-5.1-52.1c-0.1-1.1-1-1.9-2.1-1.9h-9.6v-8.5c0-8.1-6.6-14.7-14.7-14.7c-8.1,0-14.7,6.6-14.7,14.7v8.5h-9.6  c-1.1,0-2,0.8-2.1,1.9l-5.2,52.4c-0.1,0.6,0.1,1.2,0.5,1.7c0.4,0.5,1,0.7,1.6,0.7h58.9c1.2,0,2.1-1,2.1-2.1  C81.6,87.6,81.6,87.4,81.5,87.3z M39.6,24.7c0-5.7,4.6-10.4,10.4-10.4c5.7,0,10.4,4.6,10.4,10.4v8.5H39.6V24.7z M27.7,37.5h7.7v4.3  c0,1.2,1,2.1,2.1,2.1c1.2,0,2.1-1,2.1-2.1v-4.3h20.7v4.3c0,1.2,1,2.1,2.1,2.1c1.2,0,2.1-1,2.1-2.1v-4.3h7.7l3.9,39.6H23.8L27.7,37.5  z M22.9,85.6l0.4-4.2h53.3l0.4,4.2H22.9z"/></svg>