<svg xmlns="http://www.w3.org/2000/svg" xmlns:xlink="http://www.w3.org/1999/xlink" xmlns:sketch="http://www.bohemiancoding.com/sketch/ns" viewBox="0 0 100 100" version="1.1" x="0px" y="0px"><g stroke="none" stroke-width="1" fill="none" fill-rule="evenodd" sketch:type="MSPage"><g sketch:type="MSArtboardGroup" fill="#000000"><path d="M89.7209302,62.0160465 L35.4572093,62.0160465 C32.822093,62.0160465 30.8065116,60.0004651 30.8065116,57.3653488 C30.8065116,54.7281395 32.822093,52.7125581 35.4572093,52.7125581 L89.7209302,52.7125581 C92.3560465,52.7125581 94.3716279,54.7281395 94.3716279,57.3653488 C94.3716279,60.0004651 92.3560465,62.0160465 89.7209302,62.0160465 L89.7209302,62.0160465 Z M89.7209302,44.962093 L35.4572093,44.962093 C32.822093,44.962093 30.8065116,42.9465116 30.8065116,40.3093023 C30.8065116,37.674186 32.822093,35.6586047 35.4572093,35.6586047 L89.7209302,35.6586047 C92.3560465,35.6586047 94.3716279,37.674186 94.3716279,40.3093023 C94.3716279,42.9465116 92.3560465,44.962093 89.7209302,44.962093 L89.7209302,44.962093 Z M89.7209302,27.9060465 L35.4572093,27.9060465 C32.822093,27.9060465 30.8065116,25.8925581 30.8065116,23.2553488 C30.8065116,20.6202326 32.822093,18.6046512 35.4572093,18.6046512 L89.7209302,18.6046512 C92.3560465,18.6046512 94.3716279,20.6202326 94.3716279,23.2553488 C94.3716279,25.8925581 92.3560465,27.9060465 89.7209302,27.9060465 L89.7209302,27.9060465 Z M18.4032558,79.07 L10.6506977,79.07 C8.0155814,79.07 6,77.0544186 6,74.4193023 C6,71.782093 8.0155814,69.7665116 10.6506977,69.7665116 L18.4032558,69.7665116 C21.0383721,69.7665116 23.0539535,71.782093 23.0539535,74.4193023 C23.0539535,77.0544186 21.0383721,79.07 18.4032558,79.07 L18.4032558,79.07 Z M18.4032558,62.0160465 L10.6506977,62.0160465 C8.0155814,62.0160465 6,60.0004651 6,57.3653488 C6,54.7281395 8.0155814,52.7125581 10.6506977,52.7125581 L18.4032558,52.7125581 C21.0383721,52.7125581 23.0539535,54.7281395 23.0539535,57.3653488 C23.0539535,60.0004651 21.0383721,62.0160465 18.4032558,62.0160465 L18.4032558,62.0160465 Z M18.4032558,44.962093 L10.6506977,44.962093 C8.0155814,44.962093 6,42.9465116 6,40.3093023 C6,37.674186 8.0155814,35.6586047 10.6506977,35.6586047 L18.4032558,35.6586047 C21.0383721,35.6586047 23.0539535,37.674186 23.0539535,40.3093023 C23.0539535,42.9465116 21.0383721,44.962093 18.4032558,44.962093 L18.4032558,44.962093 Z M18.4032558,27.9060465 L10.6506977,27.9060465 C8.0155814,27.9060465 6,25.8925581 6,23.2553488 C6,20.6202326 8.0155814,18.6046512 10.6506977,18.6046512 L18.4032558,18.6046512 C21.0383721,18.6046512 23.0539535,20.6202326 23.0539535,23.2553488 C23.0539535,25.8925581 21.0383721,27.9060465 18.4032558,27.9060465 L18.4032558,27.9060465 Z M35.4572093,69.7665116 L89.7209302,69.7665116 C92.3560465,69.7665116 94.3716279,71.782093 94.3716279,74.4193023 C94.3716279,77.0544186 92.3560465,79.07 89.7209302,79.07 L35.4572093,79.07 C32.822093,79.07 30.8065116,77.0544186 30.8065116,74.4193023 C30.8065116,71.782093 32.822093,69.7665116 35.4572093,69.7665116 L35.4572093,69.7665116 Z" sketch:type="MSShapeGroup"/></g></g></svg>